<svg width="341" height="173" viewBox="0 0 341 173" fill="none" xmlns="http://www.w3.org/2000/svg">
<path d="M299.202 80L294 93.212H302.892H304.242L299.202 80Z" fill="#03DAC6"/>
<path d="M302.892 93.212H294L299.202 80L304.242 93.212H302.892ZM302.892 93.212L299.184 82.736" stroke="#03DAC6" stroke-width="2"/>
<path d="M299.976 31.264L258.36 136.96H268.584L299.832 53.152L329.496 136.96H340.296L299.976 31.264Z" fill="black"/>
<path d="M41.024 141.736L82.64 36.04H72.416L41.168 119.848L11.504 36.04H0.704L41.024 141.736ZM94.1285 139H103.489V36.04H94.1285V139ZM121.224 121.72C126.696 134.968 136.344 141.736 149.88 141.736C168.456 141.736 179.976 130.072 179.976 111.64C179.976 96.088 173.064 89.464 157.944 81.256C144.552 73.912 135.192 71.032 135.192 58.504C135.192 48.424 141.528 41.944 151.752 41.944C159.24 41.944 165 45.112 167.88 51.016L175.08 46.696C170.328 38.056 162.696 33.592 152.328 33.592C136.488 33.592 125.688 43.816 125.688 58.36C125.688 72.76 135.192 79.384 151.464 87.88C163.56 94.216 171.048 98.968 171.048 111.64C171.048 125.464 163.272 133.384 150.312 133.384C140.232 133.384 132.168 127.624 129.288 117.4L121.224 121.72ZM219.151 139H228.511V44.824H256.879V36.04H190.783V44.824H219.151V139Z" fill="black"/>
</svg>
